<svg width="175" height="35" viewBox="0 0 175 35" fill="none" xmlns="http://www.w3.org/2000/svg">
<g opacity="0.5" clip-path="url(#clip0_0_638)">
<path d="M22.0011 26.084C20.1147 26.179 18.2284 26.2264 16.3421 26.2264C14.4557 26.2264 12.5693 26.179 10.683 26.084C10.039 26.0541 9.47959 25.7912 9.01466 25.3011L9.01217 25.2984L9.00972 25.2957C8.55891 24.7912 8.31687 24.1843 8.28893 23.4857C8.2639 23.0503 8.24513 22.6082 8.23262 22.1595L8.22528 21.8963H8.46774H10.0014H10.2292L10.2366 22.1435C10.2489 22.5605 10.2675 22.9707 10.2923 23.374C10.3011 23.5181 10.3475 23.6381 10.4336 23.7428C10.5277 23.8432 10.6399 23.8979 10.7813 23.9078C12.6349 24.0024 14.4885 24.0497 16.3421 24.0497C18.1957 24.0497 20.0493 24.0024 21.9028 23.9078C22.0457 23.8978 22.1483 23.8427 22.2281 23.7473L22.2318 23.7428L22.2358 23.7385C22.3338 23.6321 22.3829 23.5141 22.3918 23.3757C22.4499 22.1633 22.4862 20.9331 22.5009 19.6851H13.6113H13.3761V19.4296V17.7638V17.5083H13.6113H22.5008C22.4862 16.2721 22.4498 15.0419 22.3918 13.8176C22.3829 13.6793 22.3338 13.5613 22.2358 13.4549L22.2318 13.4505L22.2281 13.446C22.1516 13.3547 22.0547 13.3062 21.9158 13.3062H21.9103L21.9048 13.3059C20.0505 13.2113 18.1963 13.164 16.3421 13.164C14.4878 13.164 12.6336 13.2113 10.7793 13.3059L10.7738 13.3062H10.7683C10.6312 13.3062 10.5244 13.3539 10.4336 13.4506C10.3475 13.5553 10.3011 13.6752 10.2923 13.8194C10.2675 14.2227 10.2489 14.6328 10.2366 15.0498L10.2292 15.297H10.0014H8.46774H8.22528L8.23262 15.0338C8.24513 14.5851 8.2639 14.1431 8.28893 13.7077C8.31687 13.0088 8.55919 12.4073 9.01217 11.9153L9.01466 11.9126C9.47959 11.4225 10.0391 11.1596 10.683 11.1297C12.5694 11.0347 14.4557 10.9872 16.3421 10.9872C18.2286 10.9872 20.115 11.0347 22.0015 11.1297C22.645 11.1597 23.199 11.4225 23.652 11.9139C24.1178 12.4055 24.3676 13.008 24.3952 13.7093C24.5452 16.9676 24.5452 20.2258 24.3952 23.4841M22.0011 26.084C22.0009 26.084 22.0008 26.084 22.0006 26.084L21.9906 25.8288L22.0011 26.084C22.0012 26.084 22.0009 26.084 22.0011 26.084ZM22.0011 26.084C22.6453 26.0541 23.1998 25.7908 23.6533 25.2984C24.1176 24.794 24.3675 24.1857 24.3952 23.4841M24.3952 23.4841C24.3952 23.4838 24.3953 23.4834 24.3953 23.4831L24.1603 23.4722L24.3952 23.485C24.3952 23.4847 24.3952 23.4844 24.3952 23.4841Z" fill="white"/>
<path d="M22.0011 26.084C20.1147 26.179 18.2284 26.2264 16.3421 26.2264C14.4557 26.2264 12.5693 26.179 10.683 26.084C10.039 26.0541 9.47959 25.7912 9.01466 25.3011L9.01217 25.2984L9.00972 25.2957C8.55891 24.7912 8.31687 24.1843 8.28893 23.4857C8.2639 23.0503 8.24513 22.6082 8.23262 22.1595L8.22528 21.8963H8.46774H10.0014H10.2292L10.2366 22.1435C10.2489 22.5605 10.2675 22.9707 10.2923 23.374C10.3011 23.5181 10.3475 23.6381 10.4336 23.7428C10.5277 23.8432 10.6399 23.8979 10.7813 23.9078C12.6349 24.0024 14.4885 24.0497 16.3421 24.0497C18.1957 24.0497 20.0493 24.0024 21.9028 23.9078C22.0457 23.8978 22.1483 23.8427 22.2281 23.7473L22.2318 23.7428L22.2358 23.7385C22.3338 23.6321 22.3829 23.5141 22.3918 23.3757C22.4499 22.1633 22.4862 20.9331 22.5009 19.6851H13.6113H13.3761V19.4296V17.7638V17.5083H13.6113H22.5008C22.4862 16.2721 22.4498 15.0419 22.3918 13.8176C22.3829 13.6793 22.3338 13.5613 22.2358 13.4549L22.2318 13.4505L22.2281 13.446C22.1516 13.3547 22.0547 13.3062 21.9158 13.3062H21.9103L21.9048 13.3059C20.0505 13.2113 18.1963 13.164 16.3421 13.164C14.4878 13.164 12.6336 13.2113 10.7793 13.3059L10.7738 13.3062H10.7683C10.6312 13.3062 10.5244 13.3539 10.4336 13.4506C10.3475 13.5553 10.3011 13.6752 10.2923 13.8194C10.2675 14.2227 10.2489 14.6328 10.2366 15.0498L10.2292 15.297H10.0014H8.46774H8.22528L8.23262 15.0338C8.24513 14.5851 8.2639 14.1431 8.28893 13.7077C8.31687 13.0088 8.55919 12.4073 9.01217 11.9153L9.01466 11.9126C9.47959 11.4225 10.0391 11.1596 10.683 11.1297C12.5694 11.0347 14.4557 10.9872 16.3421 10.9872C18.2286 10.9872 20.115 11.0347 22.0015 11.1297C22.645 11.1597 23.199 11.4225 23.652 11.9139C24.1178 12.4055 24.3676 13.008 24.3952 13.7093C24.5452 16.9676 24.5452 20.2258 24.3952 23.4841M22.0011 26.084C22.0009 26.084 22.0008 26.084 22.0006 26.084L21.9906 25.8288L22.0011 26.084ZM22.0011 26.084C22.0009 26.084 22.0012 26.084 22.0011 26.084ZM22.0011 26.084C22.6453 26.0541 23.1998 25.7908 23.6533 25.2984C24.1176 24.794 24.3675 24.1857 24.3952 23.4841M24.3952 23.4841C24.3952 23.4838 24.3953 23.4834 24.3953 23.4831L24.1603 23.4722L24.3952 23.485C24.3952 23.4847 24.3952 23.4844 24.3952 23.4841Z" stroke="white"/>
<path fill-rule="evenodd" clip-rule="evenodd" d="M61.7557 11.2545H64.2306V19.5709L64.2302 19.5755C64.2052 21.0818 64.1681 22.3937 64.1177 23.5106V23.512V23.5088V23.5106C64.0872 24.2774 63.812 24.9455 63.3072 25.4939C62.8118 26.0319 62.2012 26.3213 61.4993 26.3541L61.4998 26.354L61.4979 26.3541L61.4993 26.3541C59.6091 26.4492 57.7194 26.4968 55.8297 26.4968C54.2006 26.4968 52.4412 26.4492 50.5529 26.3541L50.5519 26.354L50.5538 26.3541L50.5529 26.3541C49.851 26.3214 49.2371 26.0325 48.7309 25.4993L48.7262 25.4939L48.721 25.4885C48.2313 24.9402 47.9655 24.275 47.9345 23.5147C47.9345 23.5165 47.9345 23.5182 47.9345 23.52L47.934 23.5088C47.934 23.5108 47.9345 23.5127 47.9345 23.5147C47.9091 23.09 47.8902 22.6456 47.8775 22.1817L47.8634 21.6557H50.337L50.352 22.1502C50.3642 22.5644 50.3826 22.9716 50.407 23.3719L50.4075 23.374C50.4132 23.4726 50.4381 23.539 50.4771 23.592C50.4771 23.592 50.4654 23.5817 50.4602 23.5763L50.4917 23.6106L50.4771 23.592C50.5251 23.6337 50.5858 23.6611 50.6747 23.6676C50.6733 23.6676 50.6719 23.6675 50.6705 23.6674L50.6747 23.6676L50.678 23.6679C50.6771 23.6678 50.6757 23.6677 50.6747 23.6676C52.5249 23.762 54.2429 23.809 55.8297 23.809C57.6785 23.809 59.5277 23.7619 61.377 23.6676C61.3761 23.6677 61.3751 23.6678 61.3737 23.6679L61.3812 23.6674C61.3798 23.6675 61.3784 23.6676 61.377 23.6676C61.4763 23.6603 61.5243 23.6283 61.5567 23.5931C61.6099 23.5353 61.6386 23.4713 61.6442 23.3757V23.3785L61.6447 23.374L61.6442 23.3757C61.6771 22.7057 61.7058 21.655 61.7289 20.2195H50.5449L50.535 20.219C49.8327 20.1866 49.2183 19.8977 48.7126 19.3641L48.7074 19.3589L48.7022 19.3534C48.2134 18.8062 47.942 18.1433 47.8973 17.3846L47.8964 17.3683V11.2545H50.3896V17.2707C50.3896 17.3515 50.4089 17.4019 50.4499 17.4495C50.4499 17.4495 50.4442 17.444 50.4414 17.4412L50.4499 17.4495L50.4574 17.4579C50.455 17.4551 50.4522 17.4523 50.4499 17.4495C50.5021 17.498 50.5576 17.5243 50.6296 17.5318L50.6423 17.5329C50.6423 17.5329 50.6338 17.5322 50.6296 17.5318H61.7557V11.2545ZM69.4886 11.2545H83.1974V26.4968H80.723V13.9625H69.5785C69.5211 13.9625 69.4773 13.9792 69.4247 14.0363C69.3691 14.0967 69.3452 14.1537 69.3381 14.2219L69.3569 16.3363V23.6456L69.356 23.6618C69.3113 24.4206 69.0394 25.0835 68.5506 25.6307L68.5482 25.6334L68.5454 25.6361C68.0501 26.1743 67.4394 26.4638 66.7366 26.4963L66.7267 26.4968H65.9096V23.809H66.6228C66.6863 23.802 66.7394 23.7758 66.7954 23.7149C66.8481 23.6578 66.8636 23.6102 66.8636 23.5481V14.1057L66.8646 14.0894C66.9093 13.3301 67.1812 12.6712 67.6747 12.1355C68.1677 11.5998 68.7745 11.304 69.4736 11.2555L69.4886 11.2545ZM99.4964 16.6785L99.5063 16.679C100.208 16.7115 100.818 17 101.313 17.5366C101.823 18.0756 102.096 18.7474 102.126 19.5247L102.126 19.5354V23.6402L102.126 23.651C102.096 24.4186 101.82 25.0873 101.315 25.6361C100.82 26.1743 100.209 26.4638 99.5063 26.4963L99.4964 26.4968H85.7923V11.2545H88.2668V16.6785H99.4964ZM99.5731 19.469L99.5651 19.4604C99.5091 19.3996 99.456 19.3734 99.3929 19.3663L88.2668 19.3858V23.809H99.3925C99.456 23.802 99.5091 23.7758 99.5651 23.7149C99.6211 23.654 99.6451 23.5964 99.6517 23.5275V19.646C99.6446 19.5592 99.6187 19.514 99.5811 19.4772L99.5731 19.469ZM121.532 11.2431L111.212 18.8756L121.516 26.4968H117.114L108.622 20.2195H106.6V26.4968H104.126V11.2748H106.6V17.5318H108.623L117.094 11.2759L121.532 11.2431ZM163.047 11.2545H166.532V26.4968H164.038V14.978L158.452 26.4968H156.351L150.746 14.9741V26.4968H148.271V11.2545H151.756L157.402 22.8795L163.047 11.2545Z" fill="white"/>
<path d="M42.0606 11.2544H45.5455V26.4967H43.0523V14.978L37.466 26.4967H35.3649L29.7595 14.974V26.4967H27.2849V11.2544H30.7698L36.4152 22.8794L42.0606 11.2544Z" fill="white"/>
<path fill-rule="evenodd" clip-rule="evenodd" d="M133.737 0.00183105C133.737 0.00183105 123.075 9.44391 123.824 18.0082C123.824 23.3222 128.525 27.63 133.737 27.63C138.948 27.63 143.65 23.3222 143.65 18.0082C144.398 9.44391 133.737 0.00183105 133.737 0.00183105ZM133.737 25.1922C137.972 25.1922 141.405 21.4632 141.405 16.8631C141.405 12.2631 137.972 8.53406 133.737 8.53406C129.501 8.53406 126.068 12.2631 126.068 16.8631C126.068 21.4632 129.501 25.1922 133.737 25.1922Z" fill="white"/>
<path fill-rule="evenodd" clip-rule="evenodd" d="M126.086 2.84598H0.00413513V34.7464H174.891V2.84598H141.388L142.679 4.87746H173.02V32.7149H1.87452V4.87746H124.794L126.086 2.84598Z" fill="white"/>
</g>
<defs>
<clipPath id="clip0_0_638">
<rect width="175" height="34.7445" fill="white" transform="translate(0 0.00183105)"/>
</clipPath>
</defs>
</svg>
