<svg width="220" height="41" viewBox="0 0 220 41" fill="none" xmlns="http://www.w3.org/2000/svg">
<g clip-path="url(#clip0_31_124)">
<path d="M27.6585 30.1888C25.2871 30.2988 22.9157 30.3537 20.5443 30.3537C18.1729 30.3537 15.8014 30.2988 13.4301 30.1888C12.6205 30.1542 11.9172 29.8499 11.3327 29.2826L11.3296 29.2795L11.3265 29.2764C10.7598 28.6925 10.4555 27.99 10.4204 27.1814C10.3889 26.6775 10.3653 26.1658 10.3496 25.6464L10.3404 25.3418H10.6452H12.5732H12.8596L12.8688 25.628C12.8844 26.1106 12.9077 26.5853 12.9388 27.0521C12.95 27.219 13.0083 27.3578 13.1165 27.479C13.2348 27.5952 13.3758 27.6585 13.5536 27.6701C15.8839 27.7795 18.2141 27.8342 20.5443 27.8342C22.8746 27.8342 25.2048 27.7795 27.535 27.6701C27.7146 27.6584 27.8436 27.5946 27.9439 27.4842L27.9486 27.479L27.9536 27.4741C28.0768 27.3509 28.1385 27.2143 28.1497 27.0541C28.2227 25.6508 28.2684 24.2269 28.2868 22.7824H17.1113H16.8156V22.4867V20.5586V20.2629H17.1113H28.2867C28.2684 18.8321 28.2226 17.4082 28.1497 15.9911C28.1385 15.831 28.0767 15.6944 27.9536 15.5712L27.9486 15.5662L27.9439 15.561C27.8477 15.4553 27.7259 15.3992 27.5513 15.3992H27.5444L27.5374 15.3989C25.2064 15.2893 22.8753 15.2346 20.5443 15.2346C18.2133 15.2346 15.8822 15.2893 13.5512 15.3989L13.5443 15.3992H13.5373C13.3649 15.3992 13.2306 15.4544 13.1165 15.5663C13.0083 15.6875 12.95 15.8263 12.9388 15.9931C12.9077 16.4599 12.8844 16.9347 12.8688 17.4174L12.8596 17.7035H12.5732H10.6452H10.3404L10.3496 17.3988C10.3653 16.8795 10.3889 16.3678 10.4204 15.8639C10.4555 15.055 10.7601 14.3587 11.3296 13.7892L11.3327 13.7861C11.9172 13.2188 12.6206 12.9146 13.4301 12.88C15.8015 12.77 18.1729 12.7151 20.5443 12.7151C22.9159 12.7151 25.2875 12.77 27.659 12.88C28.468 12.9147 29.1644 13.2188 29.734 13.7877C30.3195 14.3567 30.6335 15.0541 30.6683 15.8658C30.8568 19.637 30.8568 23.4083 30.6683 27.1796M27.6585 30.1888C27.6583 30.1888 27.6581 30.1888 27.6579 30.1888L27.6454 29.8934L27.6585 30.1888C27.6587 30.1888 27.6583 30.1888 27.6585 30.1888ZM27.6585 30.1888C28.4684 30.1542 29.1655 29.8495 29.7356 29.2795C30.3193 28.6957 30.6335 27.9917 30.6683 27.1796M30.6683 27.1796C30.6683 27.1792 30.6684 27.1788 30.6684 27.1784L30.3729 27.1658L30.6682 27.1806C30.6682 27.1803 30.6683 27.1799 30.6683 27.1796Z" fill="white"/>
<path d="M27.6585 30.1888C25.2871 30.2988 22.9157 30.3537 20.5443 30.3537C18.1729 30.3537 15.8014 30.2988 13.4301 30.1888C12.6205 30.1542 11.9172 29.8499 11.3327 29.2826L11.3296 29.2795L11.3265 29.2764C10.7598 28.6925 10.4555 27.99 10.4204 27.1814C10.3889 26.6775 10.3653 26.1658 10.3496 25.6464L10.3404 25.3418H10.6452H12.5732H12.8596L12.8688 25.628C12.8844 26.1106 12.9077 26.5853 12.9388 27.0521C12.95 27.219 13.0083 27.3578 13.1165 27.479C13.2348 27.5952 13.3758 27.6585 13.5536 27.6701C15.8839 27.7795 18.2141 27.8342 20.5443 27.8342C22.8746 27.8342 25.2048 27.7795 27.535 27.6701C27.7146 27.6584 27.8436 27.5946 27.9439 27.4842L27.9486 27.479L27.9536 27.4741C28.0768 27.3509 28.1385 27.2143 28.1497 27.0541C28.2227 25.6508 28.2684 24.2269 28.2868 22.7824H17.1113H16.8156V22.4867V20.5586V20.2629H17.1113H28.2867C28.2684 18.8321 28.2226 17.4082 28.1497 15.9911C28.1385 15.831 28.0767 15.6944 27.9536 15.5712L27.9486 15.5662L27.9439 15.561C27.8478 15.4553 27.7259 15.3992 27.5513 15.3992H27.5444L27.5374 15.3989C25.2064 15.2893 22.8753 15.2346 20.5443 15.2346C18.2133 15.2346 15.8822 15.2893 13.5512 15.3989L13.5443 15.3992H13.5373C13.3649 15.3992 13.2306 15.4544 13.1165 15.5663C13.0083 15.6875 12.95 15.8263 12.9388 15.9931C12.9077 16.4599 12.8844 16.9347 12.8688 17.4174L12.8596 17.7035H12.5732H10.6452H10.3404L10.3496 17.3988C10.3653 16.8795 10.3889 16.3678 10.4204 15.8639C10.4555 15.055 10.7601 14.3587 11.3296 13.7892L11.3327 13.7861C11.9172 13.2188 12.6206 12.9146 13.4301 12.88C15.8015 12.77 18.1729 12.7151 20.5443 12.7151C22.9159 12.7151 25.2875 12.77 27.659 12.88C28.468 12.9147 29.1644 13.2188 29.734 13.7877C30.3195 14.3567 30.6335 15.0541 30.6683 15.8658C30.8568 19.637 30.8568 23.4083 30.6683 27.1796M27.6585 30.1888C27.6583 30.1888 27.6581 30.1888 27.6579 30.1888L27.6454 29.8934L27.6585 30.1888ZM27.6585 30.1888C27.6583 30.1888 27.6587 30.1888 27.6585 30.1888ZM27.6585 30.1888C28.4684 30.1542 29.1655 29.8495 29.7356 29.2795C30.3193 28.6957 30.6335 27.9917 30.6683 27.1796M30.6683 27.1796C30.6683 27.1792 30.6684 27.1788 30.6684 27.1784L30.3729 27.1658L30.6682 27.1806C30.6682 27.1803 30.6683 27.1799 30.6683 27.1796Z" stroke="white"/>
<path fill-rule="evenodd" clip-rule="evenodd" d="M77.6357 13.0245H80.7471V22.6503L80.7465 22.6556C80.7152 24.399 80.6684 25.9175 80.6052 27.2103V27.2119V27.2082V27.2103C80.5667 28.0978 80.2207 28.8712 79.5862 29.5058C78.9634 30.1285 78.1958 30.4636 77.3134 30.5015L77.314 30.5014L77.3117 30.5015L77.3134 30.5015C74.9372 30.6116 72.5615 30.6666 70.1859 30.6666C68.1379 30.6666 65.9261 30.6115 63.5522 30.5015L63.551 30.5014L63.5534 30.5015L63.5522 30.5015C62.6698 30.4636 61.8981 30.1293 61.2617 29.5121L61.2558 29.5059L61.2493 29.4996C60.6336 28.865 60.2995 28.0951 60.2605 27.215C60.2605 27.2171 60.2605 27.2191 60.2605 27.2212L60.2599 27.2082C60.2599 27.2105 60.2605 27.2128 60.2605 27.215C60.2285 26.7234 60.2049 26.2091 60.1889 25.6721L60.1712 25.0633H63.2807L63.2997 25.6357C63.315 26.1151 63.3381 26.5864 63.3689 27.0497L63.3695 27.0521C63.3765 27.1663 63.4079 27.2432 63.457 27.3045C63.457 27.3045 63.4422 27.2926 63.4357 27.2863L63.4753 27.3261L63.457 27.3045C63.5173 27.3527 63.5936 27.3844 63.7054 27.392C63.7036 27.392 63.7018 27.3919 63.7 27.3918L63.7054 27.392L63.7095 27.3923C63.7083 27.3922 63.7065 27.3921 63.7054 27.392C66.0313 27.5012 68.1911 27.5557 70.1859 27.5557C72.5101 27.5557 74.8349 27.5012 77.1597 27.392C77.1585 27.3921 77.1573 27.3922 77.1555 27.3923L77.165 27.3918C77.1632 27.3919 77.1614 27.392 77.1597 27.392C77.2845 27.3836 77.3448 27.3465 77.3856 27.3057C77.4524 27.2389 77.4885 27.1648 77.4956 27.0541V27.0574L77.4962 27.0521L77.4956 27.0541C77.537 26.2786 77.5731 25.0625 77.602 23.401H63.5421L63.5297 23.4004C62.6468 23.3629 61.8744 23.0286 61.2386 22.411L61.2321 22.4049L61.2256 22.3985C60.6112 21.7652 60.2699 20.9979 60.2138 20.1197L60.2126 20.1009V13.0245H63.347V19.988C63.347 20.0814 63.3712 20.1398 63.4227 20.1948C63.4227 20.1948 63.4156 20.1885 63.412 20.1852L63.4227 20.1948L63.4321 20.2046C63.4292 20.2014 63.4256 20.1981 63.4227 20.1948C63.4883 20.251 63.5581 20.2814 63.6486 20.2901L63.6646 20.2914C63.6646 20.2914 63.6539 20.2906 63.6486 20.2901H77.6357V13.0245ZM87.3571 13.0245H104.591V30.6666H101.48V16.1589H87.4701C87.3979 16.1589 87.3429 16.1782 87.2767 16.2443C87.2069 16.3141 87.1768 16.3802 87.1679 16.4591L87.1915 18.9063V27.3665L87.1904 27.3853C87.1342 28.2636 86.7923 29.0308 86.1779 29.6642L86.1749 29.6674L86.1714 29.6704C85.5486 30.2934 84.781 30.6285 83.8975 30.6661L83.885 30.6666H82.8578V27.5557H83.7543C83.8342 27.5476 83.901 27.5173 83.9714 27.4468C84.0376 27.3807 84.0571 27.3255 84.0571 27.2536V16.3245L84.0583 16.3057C84.1145 15.4269 84.4563 14.6642 85.0767 14.0442C85.6965 13.4241 86.4594 13.0817 87.3382 13.0257L87.3571 13.0245ZM125.081 19.3025L125.094 19.3031C125.975 19.3406 126.742 19.6746 127.365 20.2957C128.006 20.9195 128.349 21.6971 128.387 22.5968L128.387 22.6091V27.3603L128.387 27.3728C128.349 28.2612 128.003 29.0353 127.368 29.6704C126.745 30.2934 125.977 30.6285 125.094 30.6661L125.081 30.6666H107.853V13.0245H110.964V19.3025H125.081ZM125.178 22.5323L125.168 22.5224C125.097 22.452 125.03 22.4217 124.951 22.4135L110.964 22.436V27.5557H124.951C125.03 27.5476 125.097 27.5173 125.168 27.4468C125.238 27.3763 125.268 27.3096 125.276 27.2298V22.7372C125.268 22.6367 125.235 22.5844 125.188 22.5418L125.178 22.5323ZM152.783 13.0112L139.809 21.8455L152.763 30.6666H147.229L136.554 23.401H134.012V30.6666H130.901V13.048H134.012V20.2901H136.554L147.204 13.0492L152.783 13.0112ZM204.973 13.0245H209.354V30.6666H206.22V17.3342L199.197 30.6666H196.556L189.509 17.3297V30.6666H186.398V13.0245H190.779L197.876 26.4798L204.973 13.0245Z" fill="white"/>
<path d="M52.8762 13.0244H57.2573V30.6666H54.1229V17.3342L47.1001 30.6666H44.4588L37.412 17.3297V30.6666H34.3011V13.0244H38.6821L45.7792 26.4798L52.8762 13.0244Z" fill="white"/>
<path fill-rule="evenodd" clip-rule="evenodd" d="M168.126 0C168.126 0 154.723 10.9287 155.664 20.8415C155.664 26.9922 161.575 31.9782 168.126 31.9782C174.678 31.9782 180.588 26.9922 180.588 20.8415C181.529 10.9287 168.126 0 168.126 0ZM168.126 29.1566C173.451 29.1566 177.767 24.8404 177.767 19.5161C177.767 14.1918 173.451 9.87563 168.126 9.87563C162.802 9.87563 158.486 14.1918 158.486 19.5161C158.486 24.8404 162.802 29.1566 168.126 29.1566Z" fill="white"/>
<path fill-rule="evenodd" clip-rule="evenodd" d="M158.508 3.29199H0.00520325V40.2151H219.863V3.29199H177.745L179.368 5.64333H217.511V37.8638H2.35654V5.64333H156.884L158.508 3.29199Z" fill="white"/>
</g>
<defs>
<clipPath id="clip0_31_124">
<rect width="220" height="40.2151" fill="white"/>
</clipPath>
</defs>
</svg>
